<svg width="32" height="32" viewBox="0 0 32 32" fill="none" xmlns="http://www.w3.org/2000/svg">
  <!-- 圓角紅色背景 -->
  <rect x="2" y="2" width="28" height="28" rx="6" fill="#dc2626"/>
  
  <!-- 標準化 BookOpen 圖示 (白色，粗體輪廓) -->
  <g transform="translate(8, 8) scale(0.67)">
    <path d="M12 7v14" stroke="white" strokeWidth="3" strokeLinecap="round" strokeLinejoin="round" fill="none"/>
    <path d="M3 18a1 1 0 0 1-1-1V4a1 1 0 0 1 1-1h5a4 4 0 0 1 4 4 4 4 0 0 1 4-4h5a1 1 0 0 1 1 1v13a1 1 0 0 1-1 1h-6a3 3 0 0 0-3 3 3 3 0 0 0-3-3z" stroke="white" strokeWidth="3" strokeLinecap="round" strokeLinejoin="round" fill="none"/>
  </g>
</svg> 