<svg width="300" height="80" viewBox="0 0 300 80" fill="none" xmlns="http://www.w3.org/2000/svg">
  <!-- BookOpen 圖示 (紅色背景) -->
  <g transform="translate(20, 16)">
    <!-- 圓角紅色背景 -->
    <rect x="0" y="0" width="48" height="48" rx="10" fill="#dc2626"/>
    
    <!-- BookOpen 圖示 (白色) - 使用相同的 SVG 路徑 -->
    <g transform="translate(24, 24)">
      <!-- 縮放並居中 BookOpen 圖示 -->
      <g transform="scale(0.83) translate(-12, -12)">
        <path d="M12 7v14" stroke="white" strokeWidth="2" strokeLinecap="round" strokeLinejoin="round" fill="none"/>
        <path d="M3 18a1 1 0 0 1-1-1V4a1 1 0 0 1 1-1h5a4 4 0 0 1 4 4 4 4 0 0 1 4-4h5a1 1 0 0 1 1 1v13a1 1 0 0 1-1 1h-6a3 3 0 0 0-3 3 3 3 0 0 0-3-3z" stroke="white" strokeWidth="2" strokeLinecap="round" strokeLinejoin="round" fill="none"/>
      </g>
    </g>
  </g>
  
  <!-- LingUBible 文字 -->
  <text x="88" y="50" font-family="Inter, -apple-system, BlinkMacSystemFont, 'Segoe UI', Roboto, sans-serif" font-size="32" font-weight="700" fill="#1f2937">LingUBible</text>
</svg>