<svg width="512" height="512" viewBox="0 0 512 512" fill="none" xmlns="http://www.w3.org/2000/svg">
  <!-- 極簡背景 -->
  <rect x="0" y="0" width="512" height="512" rx="100" fill="#dc2626"/>
  
  <!-- 極簡書本圖標 -->
  <g transform="translate(256, 200)">
    <!-- 簡化的書本形狀 -->
    <g transform="scale(8)">
      <!-- 左頁面 -->
      <path d="M-15 -8 L-2 -8 Q2 -8 2 -4 L2 12 Q2 16 -2 16 L-15 16 Z" fill="white" fill-opacity="0.95"/>
      <!-- 右頁面 -->
      <path d="M15 -8 L2 -8 Q-2 -8 -2 -4 L-2 12 Q-2 16 2 16 L15 16 Z" fill="white" fill-opacity="0.95"/>
      <!-- 中央分割線 -->
      <line x1="0" y1="-8" x2="0" y2="16" stroke="#dc2626" stroke-width="1"/>
    </g>
  </g>
  
  <!-- 極簡文字標識 -->
  <g transform="translate(256, 320)">
    <!-- L -->
    <rect x="-80" y="0" width="8" height="40" fill="white"/>
    <rect x="-80" y="32" width="24" height="8" fill="white"/>
    
    <!-- U -->
    <path d="M-40 0 L-40 24 Q-40 32 -32 32 L-24 32 Q-16 32 -16 24 L-16 0" 
          stroke="white" stroke-width="8" fill="none" stroke-linecap="round"/>
    
    <!-- 簡化的書本符號 -->
    <g transform="translate(20, 20) scale(1.5)">
      <rect x="-6" y="-8" width="12" height="16" rx="2" fill="white"/>
      <line x1="0" y1="-6" x2="0" y2="6" stroke="#dc2626" stroke-width="1"/>
    </g>
  </g>
</svg> 