<svg width="512" height="512" viewBox="0 0 512 512" fill="none" xmlns="http://www.w3.org/2000/svg">
  <!-- 圓角紅色背景 -->
  <rect x="32" y="32" width="448" height="448" rx="80" fill="#dc2626"/>
  
  <!-- BookOpen 圖示 (白色) - 使用相同的 SVG 路徑 -->
  <g transform="translate(256, 256)">
    <!-- 縮放並居中 BookOpen 圖示 -->
    <g transform="scale(8) translate(-12, -12)">
      <path d="M12 7v14" stroke="white" strokeWidth="2" strokeLinecap="round" strokeLinejoin="round" fill="none"/>
      <path d="M3 18a1 1 0 0 1-1-1V4a1 1 0 0 1 1-1h5a4 4 0 0 1 4 4 4 4 0 0 1 4-4h5a1 1 0 0 1 1 1v13a1 1 0 0 1-1 1h-6a3 3 0 0 0-3 3 3 3 0 0 0-3-3z" stroke="white" strokeWidth="2" strokeLinecap="round" strokeLinejoin="round" fill="none"/>
    </g>
  </g>
</svg> 