<svg width="512" height="512" viewBox="0 0 512 512" fill="none" xmlns="http://www.w3.org/2000/svg">
  <!-- 圓角紅色背景 -->
  <rect x="32" y="32" width="448" height="448" rx="80" fill="#dc2626"/>
  
  <!-- 書本圖示 (白色) -->
  <g transform="translate(128, 160)">
    <!-- 左頁 -->
    <path d="M0 24 C0 12 12 0 24 0 L104 0 C116 0 128 12 128 24 L128 176 C128 188 116 200 104 200 L24 200 C12 200 0 188 0 176 Z" fill="white"/>
    <!-- 右頁 -->
    <path d="M128 24 C128 12 140 0 152 0 L232 0 C244 0 256 12 256 24 L256 176 C256 188 244 200 232 200 L152 200 C140 200 128 188 128 176 Z" fill="white"/>
    <!-- 中間裝訂線 -->
    <line x1="128" y1="24" x2="128" y2="200" stroke="#dc2626" stroke-width="6"/>
    <!-- 書籤 -->
    <path d="M116 200 L116 256 L128 244 L140 256 L140 200" fill="#dc2626"/>
  </g>
</svg> 