<?xml version="1.0" encoding="UTF-8"?>
<svg width="1170" height="2532" viewBox="0 0 1170 2532" fill="none" xmlns="http://www.w3.org/2000/svg">
  <!-- 背景漸變 -->
  <defs>
    <linearGradient id="backgroundGradient" x1="0%" y1="0%" x2="100%" y2="100%">
      <stop offset="0%" style="stop-color:#dc2626;stop-opacity:1" />
      <stop offset="50%" style="stop-color:#ef4444;stop-opacity:1" />
      <stop offset="100%" style="stop-color:#dc2626;stop-opacity:1" />
    </linearGradient>
    <radialGradient id="glowGradient" cx="50%" cy="50%" r="50%">
      <stop offset="0%" style="stop-color:rgba(255,255,255,0.3);stop-opacity:1" />
      <stop offset="70%" style="stop-color:rgba(255,255,255,0.1);stop-opacity:1" />
      <stop offset="100%" style="stop-color:rgba(255,255,255,0);stop-opacity:0" />
    </radialGradient>
  </defs>
  
  <!-- 背景 -->
  <rect width="1170" height="2532" fill="url(#backgroundGradient)"/>
  
  <!-- 背景光暈 -->
  <circle cx="585" cy="886.1999999999999" r="351" fill="url(#glowGradient)" opacity="0.6"/>
  
  <!-- Logo 背景 -->
  <rect x="497.25" y="1178.25" width="175.5" height="175.5" rx="35.1" fill="white" opacity="0.95"/>
  
  <!-- Logo 圖標 (BookOpen) -->
  <g transform="translate(585, 1266)">
    <g transform="scale(4.9)">
      <path d="M0 0v6" stroke="#dc2626" stroke-width="2.5" stroke-linecap="round" stroke-linejoin="round" fill="none"/>
      <path d="M-7 5a1 1 0 0 1-1-1V-4a1 1 0 0 1 1-1h3.5a4 4 0 0 1 3.5 4 4 4 0 0 1 3.5-4H7a1 1 0 0 1 1 1v8a1 1 0 0 1-1 1h-4.5a3 3 0 0 0-2.5 2 3 3 0 0 0-2.5-2z" stroke="#dc2626" stroke-width="2.5" stroke-linecap="round" stroke-linejoin="round" fill="none"/>
    </g>
  </g>
  
  <!-- 應用名稱 -->
  <text x="585" y="1406.4" text-anchor="middle" fill="white" font-family="system-ui, -apple-system, sans-serif" font-size="46.800000000000004" font-weight="bold">LingUBible</text>
  
  <!-- 副標題 -->
  <text x="585" y="1459.05" text-anchor="middle" fill="rgba(255,255,255,0.8)" font-family="system-ui, -apple-system, sans-serif" font-size="29.25" font-weight="500">課程與講師評價平台</text>
  
  <!-- 載入動畫點 -->
  <g transform="translate(585, 1529.25)">
    <circle cx="-12" cy="0" r="3" fill="rgba(255,255,255,0.6)">
      <animate attributeName="opacity" values="0.6;1;0.6" dur="1.5s" repeatCount="indefinite" begin="0s"/>
    </circle>
    <circle cx="0" cy="0" r="3" fill="rgba(255,255,255,0.6)">
      <animate attributeName="opacity" values="0.6;1;0.6" dur="1.5s" repeatCount="indefinite" begin="0.5s"/>
    </circle>
    <circle cx="12" cy="0" r="3" fill="rgba(255,255,255,0.6)">
      <animate attributeName="opacity" values="0.6;1;0.6" dur="1.5s" repeatCount="indefinite" begin="1s"/>
    </circle>
  </g>
  
  <!-- 底部文字 -->
  <text x="585" y="2492" text-anchor="middle" fill="rgba(255,255,255,0.4)" font-family="system-ui, -apple-system, sans-serif" font-size="23.400000000000002">Powered by LingUBible</text>
</svg>